HIERARCHY
ROOT mixamorig:Hips
{
	OFFSET -0.000008 104.274872 1.554316
	CHANNELS 6 Xposition Yposition Zposition Xrotation Yrotation Zrotation
	JOINT mixamorig:Spine
	{
		OFFSET -0.000005 10.181595 0.131519
		CHANNELS 6 Xposition Yposition Zposition Xrotation Yrotation Zrotation
		JOINT mixamorig:Spine1
		{
			OFFSET -0.000000 9.893959 -1.470707
			CHANNELS 6 Xposition Yposition Zposition Xrotation Yrotation Zrotation
			JOINT mixamorig:Spine2
			{
				OFFSET -0.000000 9.220757 -1.370641
				CHANNELS 6 Xposition Yposition Zposition Xrotation Yrotation Zrotation
				JOINT mixamorig:Neck
				{
					OFFSET 0.000001 16.740417 -2.049036
					CHANNELS 6 Xposition Yposition Zposition Xrotation Yrotation Zrotation
					JOINT mixamorig:Head
					{
						OFFSET 0.000000 9.617874 1.685006
						CHANNELS 6 Xposition Yposition Zposition Xrotation Yrotation Zrotation
						JOINT mixamorig:HeadTop_End
						{
							OFFSET 0.000002 22.037354 7.501101
							CHANNELS 6 Xposition Yposition Zposition Xrotation Yrotation Zrotation
							End Site
							{
								OFFSET 0.000168 2310.654297 -282.823242
							}
						}
					}
				}
				JOINT mixamorig:RightShoulder
				{
					OFFSET -4.569970 11.014908 -2.160885
					CHANNELS 6 Xposition Yposition Zposition Xrotation Yrotation Zrotation
					JOINT mixamorig:RightArm
					{
						OFFSET -10.592851 -0.524811 -2.232101
						CHANNELS 6 Xposition Yposition Zposition Xrotation Yrotation Zrotation
						JOINT mixamorig:RightForeArm
						{
							OFFSET -27.841511 0.000031 -0.000004
							CHANNELS 6 Xposition Yposition Zposition Xrotation Yrotation Zrotation
							JOINT mixamorig:RightHand
							{
								OFFSET -28.328831 -0.000015 0.000015
								CHANNELS 6 Xposition Yposition Zposition Xrotation Yrotation Zrotation
								JOINT mixamorig:RightHandThumb1
								{
									OFFSET -2.464806 -1.573990 2.681852
									CHANNELS 6 Xposition Yposition Zposition Xrotation Yrotation Zrotation
									JOINT mixamorig:RightHandThumb2
									{
										OFFSET -3.215179 -1.872803 1.924282
										CHANNELS 6 Xposition Yposition Zposition Xrotation Yrotation Zrotation
										JOINT mixamorig:RightHandThumb3
										{
											OFFSET -2.654831 -1.527969 1.512609
											CHANNELS 6 Xposition Yposition Zposition Xrotation Yrotation Zrotation
											JOINT mixamorig:RightHandThumb4
											{
												OFFSET -2.018814 -1.152008 1.108052
												CHANNELS 6 Xposition Yposition Zposition Xrotation Yrotation Zrotation
												End Site
												{
													OFFSET -188.809540 -114.533607 132.431396
												}
											}
										}
									}
								}
								JOINT mixamorig:RightHandIndex1
								{
									OFFSET -9.108284 -0.517868 2.259835
									CHANNELS 6 Xposition Yposition Zposition Xrotation Yrotation Zrotation
									JOINT mixamorig:RightHandIndex2
									{
										OFFSET -3.699989 0.000000 0.001215
										CHANNELS 6 Xposition Yposition Zposition Xrotation Yrotation Zrotation
										JOINT mixamorig:RightHandIndex3
										{
											OFFSET -2.850006 0.000031 -0.000522
											CHANNELS 6 Xposition Yposition Zposition Xrotation Yrotation Zrotation
											JOINT mixamorig:RightHandIndex4
											{
												OFFSET -2.772186 -0.000015 -0.000020
												CHANNELS 6 Xposition Yposition Zposition Xrotation Yrotation Zrotation
												End Site
												{
													OFFSET -277.218445 0.000000 -0.050231
												}
											}
										}
									}
								}
								JOINT mixamorig:RightHandMiddle1
								{
									OFFSET -9.532516 -0.000031 -0.000023
									CHANNELS 6 Xposition Yposition Zposition Xrotation Yrotation Zrotation
									JOINT mixamorig:RightHandMiddle2
									{
										OFFSET -3.700005 -0.000015 0.003713
										CHANNELS 6 Xposition Yposition Zposition Xrotation Yrotation Zrotation
										JOINT mixamorig:RightHandMiddle3
										{
											OFFSET -2.949974 0.000015 -0.002054
											CHANNELS 6 Xposition Yposition Zposition Xrotation Yrotation Zrotation
											JOINT mixamorig:RightHandMiddle4
											{
												OFFSET -2.946640 0.000000 -0.000156
												CHANNELS 6 Xposition Yposition Zposition Xrotation Yrotation Zrotation
												End Site
												{
													OFFSET -294.664337 0.000000 -0.113670
												}
											}
										}
									}
								}
								JOINT mixamorig:RightHandRing1
								{
									OFFSET -9.103600 -0.043076 -1.865134
									CHANNELS 6 Xposition Yposition Zposition Xrotation Yrotation Zrotation
									JOINT mixamorig:RightHandRing2
									{
										OFFSET -3.379288 0.000000 -0.001055
										CHANNELS 6 Xposition Yposition Zposition Xrotation Yrotation Zrotation
										JOINT mixamorig:RightHandRing3
										{
											OFFSET -2.889687 -0.000015 0.000379
											CHANNELS 6 Xposition Yposition Zposition Xrotation Yrotation Zrotation
											JOINT mixamorig:RightHandRing4
											{
												OFFSET -2.638809 -0.000015 0.000941
												CHANNELS 6 Xposition Yposition Zposition Xrotation Yrotation Zrotation
												End Site
												{
													OFFSET -263.880371 0.000000 0.516020
												}
											}
										}
									}
								}
								JOINT mixamorig:RightHandPinky1
								{
									OFFSET -8.076683 -0.486710 -3.806280
									CHANNELS 6 Xposition Yposition Zposition Xrotation Yrotation Zrotation
									JOINT mixamorig:RightHandPinky2
									{
										OFFSET -3.600014 -0.000015 -0.003747
										CHANNELS 6 Xposition Yposition Zposition Xrotation Yrotation Zrotation
										JOINT mixamorig:RightHandPinky3
										{
											OFFSET -2.099983 0.000000 -0.005739
											CHANNELS 6 Xposition Yposition Zposition Xrotation Yrotation Zrotation
											JOINT mixamorig:RightHandPinky4
											{
												OFFSET -2.115768 -0.000031 -0.003680
												CHANNELS 6 Xposition Yposition Zposition Xrotation Yrotation Zrotation
												End Site
												{
													OFFSET -211.577087 0.000000 -0.350686
												}
											}
										}
									}
								}
							}
						}
					}
				}
				JOINT mixamorig:LeftShoulder
				{
					OFFSET 4.570447 11.014725 -2.160855
					CHANNELS 6 Xposition Yposition Zposition Xrotation Yrotation Zrotation
					JOINT mixamorig:LeftArm
					{
						OFFSET 10.592371 -0.524597 -2.232119
						CHANNELS 6 Xposition Yposition Zposition Xrotation Yrotation Zrotation
						JOINT mixamorig:LeftForeArm
						{
							OFFSET 27.841532 -0.000031 0.000026
							CHANNELS 6 Xposition Yposition Zposition Xrotation Yrotation Zrotation
							JOINT mixamorig:LeftHand
							{
								OFFSET 28.328846 -0.000061 0.000022
								CHANNELS 6 Xposition Yposition Zposition Xrotation Yrotation Zrotation
								JOINT mixamorig:LeftHandThumb1
								{
									OFFSET 2.466141 -1.576172 2.681732
									CHANNELS 6 Xposition Yposition Zposition Xrotation Yrotation Zrotation
									JOINT mixamorig:LeftHandThumb2
									{
										OFFSET 3.217812 -1.872070 1.916482
										CHANNELS 6 Xposition Yposition Zposition Xrotation Yrotation Zrotation
										JOINT mixamorig:LeftHandThumb3
										{
											OFFSET 2.656029 -1.528778 1.514513
											CHANNELS 6 Xposition Yposition Zposition Xrotation Yrotation Zrotation
											JOINT mixamorig:LeftHandThumb4
											{
												OFFSET 2.020889 -1.154053 1.115139
												CHANNELS 6 Xposition Yposition Zposition Xrotation Yrotation Zrotation
												End Site
												{
													OFFSET 190.885437 -115.081749 130.048782
												}
											}
										}
									}
								}
								JOINT mixamorig:LeftHandIndex1
								{
									OFFSET 9.109314 -0.518021 2.259871
									CHANNELS 6 Xposition Yposition Zposition Xrotation Yrotation Zrotation
									JOINT mixamorig:LeftHandIndex2
									{
										OFFSET 3.699989 0.000000 -0.000322
										CHANNELS 6 Xposition Yposition Zposition Xrotation Yrotation Zrotation
										JOINT mixamorig:LeftHandIndex3
										{
											OFFSET 2.850006 0.000000 0.000352
											CHANNELS 6 Xposition Yposition Zposition Xrotation Yrotation Zrotation
											JOINT mixamorig:LeftHandIndex4
											{
												OFFSET 2.774864 -0.000031 -0.000027
												CHANNELS 6 Xposition Yposition Zposition Xrotation Yrotation Zrotation
												End Site
												{
													OFFSET 277.486267 0.000000 -0.009857
												}
											}
										}
									}
								}
								JOINT mixamorig:LeftHandMiddle1
								{
									OFFSET 9.533394 0.000061 0.000044
									CHANNELS 6 Xposition Yposition Zposition Xrotation Yrotation Zrotation
									JOINT mixamorig:LeftHandMiddle2
									{
										OFFSET 3.699989 -0.000015 -0.000231
										CHANNELS 6 Xposition Yposition Zposition Xrotation Yrotation Zrotation
										JOINT mixamorig:LeftHandMiddle3
										{
											OFFSET 2.949997 -0.000015 -0.000059
											CHANNELS 6 Xposition Yposition Zposition Xrotation Yrotation Zrotation
											JOINT mixamorig:LeftHandMiddle4
											{
												OFFSET 2.952896 0.000031 0.000063
												CHANNELS 6 Xposition Yposition Zposition Xrotation Yrotation Zrotation
												End Site
												{
													OFFSET 295.289337 0.000000 0.022810
												}
											}
										}
									}
								}
								JOINT mixamorig:LeftHandRing1
								{
									OFFSET 9.104523 -0.042999 -1.865074
									CHANNELS 6 Xposition Yposition Zposition Xrotation Yrotation Zrotation
									JOINT mixamorig:LeftHandRing2
									{
										OFFSET 3.150009 -0.000031 0.000043
										CHANNELS 6 Xposition Yposition Zposition Xrotation Yrotation Zrotation
										JOINT mixamorig:LeftHandRing3
										{
											OFFSET 2.949982 -0.000015 0.000040
											CHANNELS 6 Xposition Yposition Zposition Xrotation Yrotation Zrotation
											JOINT mixamorig:LeftHandRing4
											{
												OFFSET 2.644348 0.000000 0.000057
												CHANNELS 6 Xposition Yposition Zposition Xrotation Yrotation Zrotation
												End Site
												{
													OFFSET 264.434631 0.000000 0.012105
												}
											}
										}
									}
								}
								JOINT mixamorig:LeftHandPinky1
								{
									OFFSET 8.077789 -0.486847 -3.806259
									CHANNELS 6 Xposition Yposition Zposition Xrotation Yrotation Zrotation
									JOINT mixamorig:LeftHandPinky2
									{
										OFFSET 3.599953 0.000031 0.014727
										CHANNELS 6 Xposition Yposition Zposition Xrotation Yrotation Zrotation
										JOINT mixamorig:LeftHandPinky3
										{
											OFFSET 2.100021 0.000015 0.007705
											CHANNELS 6 Xposition Yposition Zposition Xrotation Yrotation Zrotation
											JOINT mixamorig:LeftHandPinky4
											{
												OFFSET 2.125504 0.000031 0.007517
												CHANNELS 6 Xposition Yposition Zposition Xrotation Yrotation Zrotation
												End Site
												{
													OFFSET 212.550781 0.000000 0.625752
												}
											}
										}
									}
								}
							}
						}
					}
				}
			}
		}
	}
	JOINT mixamorig:RightUpLeg
	{
		OFFSET -8.207787 -6.751648 -1.599560
		CHANNELS 6 Xposition Yposition Zposition Xrotation Yrotation Zrotation
		JOINT mixamorig:RightLeg
		{
			OFFSET -0.000002 -44.370117 0.345942
			CHANNELS 6 Xposition Yposition Zposition Xrotation Yrotation Zrotation
			JOINT mixamorig:RightFoot
			{
				OFFSET 0.000003 -44.423679 -3.043532
				CHANNELS 6 Xposition Yposition Zposition Xrotation Yrotation Zrotation
				JOINT mixamorig:RightToeBase
				{
					OFFSET -0.000002 -8.728671 10.710558
					CHANNELS 6 Xposition Yposition Zposition Xrotation Yrotation Zrotation
					JOINT mixamorig:RightToe_End
					{
						OFFSET -0.000001 -0.000679 9.278119
						CHANNELS 6 Xposition Yposition Zposition Xrotation Yrotation Zrotation
						End Site
						{
							OFFSET 0.000000 -0.067690 927.812134
						}
					}
				}
			}
		}
	}
	JOINT mixamorig:LeftUpLeg
	{
		OFFSET 8.207793 -6.751686 -1.599556
		CHANNELS 6 Xposition Yposition Zposition Xrotation Yrotation Zrotation
		JOINT mixamorig:LeftLeg
		{
			OFFSET -0.000004 -44.370014 0.346954
			CHANNELS 6 Xposition Yposition Zposition Xrotation Yrotation Zrotation
			JOINT mixamorig:LeftFoot
			{
				OFFSET -0.000001 -44.423672 -3.044401
				CHANNELS 6 Xposition Yposition Zposition Xrotation Yrotation Zrotation
				JOINT mixamorig:LeftToeBase
				{
					OFFSET -0.000002 -8.728669 10.710558
					CHANNELS 6 Xposition Yposition Zposition Xrotation Yrotation Zrotation
					JOINT mixamorig:LeftToe_End
					{
						OFFSET -0.000003 -0.000679 9.278133
						CHANNELS 6 Xposition Yposition Zposition Xrotation Yrotation Zrotation
						End Site
						{
							OFFSET 0.000000 -0.068021 927.813477
						}
					}
				}
			}
		}
	}
}
MOTION
Frames: 3
Frame Time: 0.033333
0.000006 104.270477 1.554256 0.000010 0.000003 -0.000113 -0.000005 10.181587 0.131522 0.000001 -0.000003 0.000084 -0.000000 9.893967 -1.470711 0.000001 0.000000 -0.000000 -0.000000 9.220802 -1.370642 0.000000 -0.000000 -0.000000 0.000001 16.740433 -2.049030 0.000000 -0.000000 -0.000000 0.000000 9.617859 1.685014 0.000000 0.000000 0.000000 0.000002 22.037384 7.501101 0.000000 -0.000000 0.000000 -4.569968 11.014880 -2.160881 0.000008 0.000001 -0.000038 -10.592877 -0.524697 -2.231990 71.823305 12.946908 -9.395017 -27.841518 0.000014 0.000533 -55.212712 118.387601 82.501807 -28.328842 0.000021 0.000025 -0.000319 -0.000045 0.000006 -2.464478 -1.573678 2.682284 -53.512336 -179.002524 -29.674337 -3.215293 -1.872627 1.924675 155.821409 29.699684 -8.172977 -2.654946 -1.527910 1.513087 148.370656 26.149461 -41.746150 -2.018834 -1.151999 1.108060 -0.000000 0.000001 0.000002 -9.108385 -0.517548 2.260075 89.525810 14.782906 -14.708013 -3.700073 0.000312 0.001459 86.200368 14.640058 -13.686850 -2.850102 0.000349 -0.000309 84.736679 12.763623 -11.649085 -2.772163 -0.000000 -0.000024 0.000001 -0.000001 0.000000 -9.532590 0.000299 0.000200 89.424757 12.412633 -12.425348 -3.700078 0.000323 0.003936 88.521205 12.300480 -11.896822 -2.950085 0.000328 -0.001824 88.026064 12.427288 -12.002549 -2.946619 0.000002 -0.000157 0.000004 -0.000001 0.000001 -9.103691 -0.042737 -1.864909 87.713706 13.667911 -13.096375 -3.379323 0.000327 -0.000826 89.530693 9.895669 -9.832600 -2.889754 0.000338 0.000614 90.780652 7.913985 -8.068956 -2.638818 -0.000016 0.000939 -0.000003 -0.000000 0.000001 -8.076746 -0.486374 -3.806055 83.265955 14.687960 -12.939262 -3.600036 0.000284 -0.003535 86.729496 8.550111 -7.741043 -2.100025 0.000322 -0.005504 85.384167 5.567293 -4.934229 -2.115761 -0.000054 -0.003679 0.000001 -0.000004 -0.000003 4.570446 11.014691 -2.160851 -0.000018 0.000010 -0.000021 10.592363 -0.524523 -2.232280 71.969696 6.995731 -5.082782 27.841839 0.000151 -0.000217 106.483223 -60.210891 75.638703 28.328829 -0.000028 0.000021 0.000020 -0.000090 0.000001 2.465867 -1.576020 2.681878 125.129298 -4.704452 -139.742529 3.217834 -1.871780 1.916382 153.554018 -28.279768 16.713697 2.656106 -1.528656 1.514454 135.476584 -29.020135 46.742294 2.020895 -1.154066 1.115142 0.000005 0.000001 0.000004 9.109365 -0.517895 2.259737 77.521349 -16.415041 13.201443 3.700042 0.000118 -0.000449 71.589084 -18.009419 13.050763 2.850031 0.000112 0.000219 68.160978 -13.953302 9.464603 2.774886 -0.000058 -0.000018 0.000001 -0.000004 -0.000002 9.533456 0.000173 -0.000114 77.631630 -13.974021 11.254372 3.700052 0.000139 -0.000369 78.624842 -15.870884 13.020987 2.950090 0.000137 -0.000179 78.417395 -18.405254 15.061361 2.952871 -0.000043 0.000056 0.000001 0.000003 0.000001 9.104568 -0.042883 -1.865220 78.047540 -13.421850 10.896645 3.150060 0.000164 -0.000107 81.079325 -13.375863 11.455615 2.950024 0.000149 -0.000063 80.999719 -14.734332 12.604564 2.644331 0.000043 0.000057 0.000001 -0.000002 0.000001 8.077847 -0.486751 -3.806414 72.946195 -15.517481 11.939487 3.600001 0.000155 0.014562 71.361536 -11.863153 8.898044 2.100013 0.000160 0.007556 72.809393 -10.862473 8.375297 2.125501 -0.000010 0.007519 -0.000002 0.000003 0.000004 -8.207786 -6.751667 -1.599560 -0.077001 -0.000003 0.000080 -0.000002 -44.370110 0.345938 0.153719 -0.000000 -0.000000 0.000000 -44.423679 -3.043532 -0.076700 0.000000 -0.000002 -0.000006 -8.728667 10.710559 -0.000009 -0.000000 -0.000000 -0.000001 -0.000679 9.278123 0.000000 -0.000000 -0.000000 8.207792 -6.751710 -1.599556 -0.074518 -0.000003 0.000081 -0.000002 -44.370014 0.346960 0.148822 0.000002 0.000000 -0.000001 -44.423664 -3.044403 -0.074314 0.000000 -0.000002 -0.000004 -8.728671 10.710558 0.000007 -0.000000 -0.000000 0.000000 -0.000680 9.278137 -0.000000 0.000000 -0.000001 
0.000006 104.270477 1.554256 0.000010 0.000003 -0.000113 -0.000005 10.181587 0.131522 0.000001 -0.000003 0.000084 -0.000000 9.893967 -1.470711 0.000001 0.000000 -0.000000 -0.000000 9.220802 -1.370642 0.000000 -0.000000 -0.000000 0.000001 16.740433 -2.049030 0.000000 -0.000000 -0.000000 0.000000 9.617859 1.685014 0.000000 0.000000 0.000000 0.000002 22.037384 7.501101 0.000000 -0.000000 0.000000 -4.569968 11.014880 -2.160881 0.000008 0.000001 -0.000038 -10.592874 -0.524688 -2.232005 71.567146 11.477286 -8.285994 -27.841515 0.000017 0.000529 -54.587087 117.278555 80.505206 -28.328823 0.000007 0.000019 -0.000319 -0.000045 0.000005 -2.464439 -1.573765 2.682337 -47.586526 -167.304568 -8.824705 -3.215289 -1.872618 1.924682 155.527123 28.906163 -12.763634 -2.654955 -1.527877 1.513081 145.035693 27.023580 -40.761770 -2.018834 -1.152014 1.108067 -0.000004 0.000001 0.000002 -9.108390 -0.517554 2.260093 91.354586 16.465966 -16.902167 -3.700073 0.000307 0.001463 87.903305 15.161218 -14.599121 -2.850103 0.000361 -0.000302 87.043719 11.633259 -11.050822 -2.772156 -0.000013 -0.000016 0.000001 -0.000000 0.000000 -9.532585 0.000275 0.000222 89.497656 13.874842 -13.892996 -3.700073 0.000324 0.003944 89.325842 12.050049 -11.816575 -2.950062 0.000347 -0.001813 90.505976 11.073369 -11.163850 -2.946609 0.000002 -0.000156 0.000002 -0.000001 0.000000 -9.103698 -0.042749 -1.864894 87.833788 14.309390 -13.741689 -3.379321 0.000323 -0.000829 89.936045 8.796017 -8.803388 -2.889730 0.000362 0.000632 93.878703 6.353009 -6.845636 -2.638829 -0.000001 0.000937 -0.000001 -0.000000 -0.000001 -8.076757 -0.486368 -3.806051 83.230950 14.479210 -12.745591 -3.600029 0.000287 -0.003548 85.725568 6.353785 -5.576897 -2.100015 0.000319 -0.005514 88.807991 3.550507 -3.269121 -2.115773 -0.000042 -0.003680 -0.000004 0.000001 -0.000004 4.570446 11.014691 -2.160851 -0.000018 0.000010 -0.000021 10.592360 -0.524535 -2.232275 72.193447 12.397304 -9.055657 27.841850 0.000136 -0.000195 106.951651 -60.822179 76.795703 28.328848 -0.000028 0.000021 0.000020 -0.000090 -0.000000 2.466053 -1.576156 2.681921 145.936404 14.991406 -205.195863 3.217860 -1.871825 1.916405 158.990616 -23.272982 39.748993 2.656106 -1.528694 1.514483 135.140484 -29.101636 58.409196 2.020899 -1.154058 1.115145 -0.000004 0.000009 0.000006 9.109377 -0.517874 2.259730 77.845339 -19.703673 15.955809 3.700062 0.000140 -0.000465 75.684609 -13.776795 10.736535 2.850044 0.000159 0.000201 74.994535 -10.895039 8.368610 2.774873 -0.000042 -0.000031 0.000001 0.000001 -0.000001 9.533454 0.000196 -0.000078 78.271290 -18.865187 15.390172 3.700045 0.000170 -0.000387 80.325320 -12.081896 10.205115 2.950044 0.000146 -0.000219 81.063240 -11.337195 9.704696 2.952856 -0.000029 0.000059 -0.000000 0.000003 0.000004 9.104591 -0.042856 -1.865203 78.880892 -18.160961 14.981154 3.150025 0.000178 -0.000095 82.312918 -12.662429 11.080367 2.950015 0.000176 -0.000080 83.511500 -10.290315 9.192872 2.644324 0.000033 0.000059 0.000000 -0.000001 -0.000002 8.077840 -0.486736 -3.806396 73.541685 -20.016505 15.488036 3.600001 0.000166 0.014570 73.539636 -16.792683 12.989622 2.100045 0.000150 0.007544 75.477087 -11.713759 9.453794 2.125496 -0.000029 0.007509 0.000001 -0.000002 0.000003 -8.207786 -6.751667 -1.599560 -0.077001 -0.000003 0.000080 -0.000002 -44.370110 0.345938 0.153719 -0.000000 -0.000000 0.000000 -44.423679 -3.043532 -0.076700 0.000000 -0.000002 -0.000006 -8.728667 10.710559 -0.000009 -0.000000 -0.000000 -0.000001 -0.000679 9.278123 0.000000 -0.000000 -0.000000 8.207792 -6.751710 -1.599556 -0.074518 -0.000003 0.000081 -0.000002 -44.370014 0.346960 0.148822 0.000002 0.000000 -0.000001 -44.423664 -3.044403 -0.074314 0.000000 -0.000002 -0.000004 -8.728671 10.710558 0.000007 -0.000000 -0.000000 0.000000 -0.000680 9.278137 -0.000000 0.000000 -0.000001 
0.000006 104.270477 1.554256 0.000010 0.000003 -0.000113 -0.000005 10.181587 0.131522 0.000001 -0.000003 0.000084 -0.000000 9.893967 -1.470711 0.000001 0.000000 -0.000000 -0.000000 9.220802 -1.370642 0.000000 -0.000000 -0.000000 0.000001 16.740433 -2.049030 0.000000 -0.000000 -0.000000 0.000000 9.617859 1.685014 0.000000 0.000000 0.000000 0.000002 22.037384 7.501101 0.000000 -0.000000 0.000000 -4.569968 11.014880 -2.160881 0.000008 0.000001 -0.000038 -10.592874 -0.524689 -2.232017 71.098069 10.563341 -7.558889 -27.841522 0.000011 0.000532 -53.521280 116.636736 78.502786 -28.328827 0.000021 0.000025 -0.000318 -0.000043 0.000006 -2.464556 -1.574071 2.682393 0.275061 -152.028236 75.075752 -3.215254 -1.872544 1.924635 158.013244 35.016324 19.383546 -2.654950 -1.527913 1.513087 152.755924 25.182436 -41.104854 -2.018845 -1.152017 1.108062 0.000004 -0.000000 0.000000 -9.108373 -0.517558 2.260113 97.982124 16.007878 -18.424150 -3.700078 0.000318 0.001505 95.005076 14.117700 -15.367437 -2.850067 0.000375 -0.000285 90.849084 10.483216 -10.637911 -2.772185 -0.000020 -0.000020 -0.000004 -0.000000 -0.000001 -9.532566 0.000285 0.000245 96.806238 12.375015 -14.079444 -3.700069 0.000335 0.003983 96.800808 10.301597 -11.490466 -2.950058 0.000337 -0.001799 94.317310 10.106978 -10.886643 -2.946626 0.000001 -0.000158 0.000001 0.000000 0.000000 -9.103681 -0.042741 -1.864867 93.358045 13.246597 -13.993392 -3.379331 0.000317 -0.000806 95.667612 10.487474 -11.592061 -2.889775 0.000340 0.000617 94.838782 8.209872 -8.981791 -2.638813 -0.000018 0.000943 -0.000001 -0.000001 0.000002 -8.076736 -0.486373 -3.806039 86.125564 14.489982 -13.413377 -3.600051 0.000274 -0.003508 88.010177 9.935517 -9.248308 -2.100022 0.000307 -0.005502 88.611855 6.495714 -6.123812 -2.115753 -0.000055 -0.003686 0.000002 -0.000001 -0.000003 4.570446 11.014691 -2.160851 -0.000018 0.000010 -0.000021 10.592354 -0.524549 -2.232262 71.623351 16.148819 -11.688886 27.841841 0.000136 -0.000228 108.048245 -62.666965 79.973128 28.328810 -0.000028 0.000021 0.000021 -0.000088 -0.000001 2.466140 -1.576158 2.681877 166.228540 19.891929 -241.868446 3.217866 -1.871889 1.916422 156.607427 -22.520293 46.155553 2.656101 -1.528686 1.514483 136.987531 -28.477721 54.625534 2.020903 -1.154069 1.115142 0.000004 0.000006 0.000004 9.109367 -0.517897 2.259728 81.652432 -19.214369 16.629035 3.700040 0.000134 -0.000481 78.855832 -13.930237 11.486238 2.850069 0.000164 0.000185 77.196348 -11.321378 9.046780 2.774885 -0.000026 -0.000033 0.000001 -0.000001 -0.000002 9.533457 0.000178 -0.000083 79.632875 -18.642773 15.575785 3.700032 0.000180 -0.000372 82.375442 -12.630664 11.060651 2.950047 0.000165 -0.000202 82.927321 -11.268554 9.966438 2.952844 -0.000031 0.000067 0.000001 0.000000 0.000003 9.104588 -0.042871 -1.865222 80.832536 -18.259092 15.586490 3.150049 0.000190 -0.000115 84.679463 -13.764734 12.554320 2.950011 0.000171 -0.000070 85.041927 -10.617832 9.742621 2.644329 0.000031 0.000062 0.000000 0.000001 -0.000002 8.077828 -0.486753 -3.806377 76.306730 -20.110799 16.345239 3.599994 0.000147 0.014572 74.930139 -17.700169 14.023700 2.100049 0.000166 0.007559 75.359144 -12.101805 9.736640 2.125505 -0.000042 0.007514 0.000004 -0.000001 -0.000000 -8.207786 -6.751667 -1.599560 -0.077001 -0.000003 0.000080 -0.000002 -44.370110 0.345938 0.153719 -0.000000 -0.000000 0.000000 -44.423679 -3.043532 -0.076700 0.000000 -0.000002 -0.000006 -8.728667 10.710559 -0.000009 -0.000000 -0.000000 -0.000001 -0.000679 9.278123 0.000000 -0.000000 -0.000000 8.207792 -6.751710 -1.599556 -0.074518 -0.000003 0.000081 -0.000002 -44.370014 0.346960 0.148822 0.000002 0.000000 -0.000001 -44.423664 -3.044403 -0.074314 0.000000 -0.000002 -0.000004 -8.728671 10.710558 0.000007 -0.000000 -0.000000 0.000000 -0.000680 9.278137 -0.000000 0.000000 -0.000001 
